#!OML:ASF E:/inclinewalkrobotboard/Project1/Captureday1/Session1/subject1.ASF
:FULLY-SPECIFIED
:DEGREES
88
root 0 0 0 45.00977369343998 -47.12269389973264 -18.506602569838208
lowerback -6.502048386617041 3.602405966749861 -0.4823485412628076
upperback -13.441109068661998 4.310104480968487 -0.07819097303889722
thorax -11.035521886697946 2.111550540739141 0.6818536494048757
lowerneck -11.434911270254592 6.756328517637677 4.435121299819197
upperneck 18.19159883990275 7.224822281597792 7.277673461271057
head 7.640655227983259 4.223642500474401 2.160624551586473
rclavicle 9.144471543337652E-16 -1.8290344341979892E-15
rhumerus 7.937812119080945 -22.478709829107498 -48.46887589892066
rradius 27.91972282044747
rwrist 21.29092149974986
rhand 0.8469091548446119 7.356591930156312
rfingers 7.125020000000029
rthumb 26.464986563029626 -19.694128181203382
lclavicle 1.4308629003722619E-15 -9.273828245341762E-16
lhumerus -10.506298324230483 3.9214608932386827 51.28670891872054
lradius 35.599223374821946
lwrist -7.850694836085339
lhand -1.7576103129123712 23.335080787010703
lfingers 7.125019999999976
lthumb 23.520494837720495 50.50859529235691
rfemur 58.95601019371284 -81.9559747206968 -56.14232740807343
rtibia 40.21349536118465
rfoot -18.426653219109586 -17.97792746394342
rtoes 21.636391486198182
lfemur -44.78135771503183 8.236466616663169 -27.13070782790198
ltibia 44.06368731520322
lfoot -22.785739717350914 14.92911481229148
ltoes 10.895815435419404
89
root 0 0 0 45.00245688831621 -47.11994775526041 -18.503889346667926
lowerback -6.49876860936987 3.602079437672069 -0.4826767541952092
upperback -13.439416387581396 4.309480195030311 -0.07845250815797256
thorax -11.03542272765715 2.1112762301556955 0.6816456729545894
lowerneck -11.43573625026956 6.756082468023987 4.434814117173178
upperneck 18.190258155768518 7.224541159905215 7.277262170079787
head 7.640277437861991 4.22348422460157 2.1605281745949503
rclavicle 9.14507844788008E-16 -1.8291461337205505E-15
rhumerus 7.923021805825639 -22.4775243937637 -48.475500115745845
rradius 27.922054815567435
rwrist 21.282839763801316
rhand 0.8390371515906132 7.3637168338643075
rfingers 7.125020000000029
rthumb 26.457416826612118 -19.688221893735207
lclavicle 1.433391213581013E-15 -9.255577437303378E-16
lhumerus -10.516445373898613 3.9139071962554794 51.30763884064832
lradius 35.60226720511972
lwrist -7.838365306111223
lhand -1.7621620369222413 23.333539010994187
lfingers 7.125019999999976
lthumb 23.515128695952292 50.50746016177591
rfemur 58.896283896983164 -81.89037857222661 -56.07816527151448
rtibia 40.21395827220553
rfoot -18.424568255196903 -17.970180958722654
rtoes 21.63104826577659
lfemur -44.76118409322151 8.229321481296768 -27.127857775694604
ltibia 44.05840945413075
lfoot -22.77801773600202 14.919253789583628
ltoes 10.886520557241992
90
root 0 0 0 45.03077139731438 -47.13853593589862 -18.514294500120833
lowerback -6.509620654327106 3.603152857697371 -0.4824373742742952
upperback -13.447768426322813 4.311294469090684 -0.07805390624532649
thorax -11.038595566435156 2.112206329781544 0.6825477373073996
lowerneck -11.431770435477121 6.759718876492121 4.436985937715085
upperneck 18.190525127875357 7.228885224000219 7.281004388724659
head 7.639837639184672 4.225827545074144 2.161607722358543
rclavicle 9.110384509884492E-16 -1.827613112114242E-15
rhumerus 7.985199624691953 -22.477381685458827 -48.469791317438066
rradius 27.909380602327094
rwrist 21.316756405795516
rhand 0.8649224304524754 7.338883592744118
rfingers 7.125020000000029
rthumb 26.481891629675257 -19.70902214758686
lclavicle 1.4197738902824478E-15 -9.29877540015591E-16
lhumerus -10.486825103480024 3.9423846730836907 51.23350670188853
lradius 35.58549385170428
lwrist -7.882900047513822
lhand -1.7530382098505832 23.3410354102539
lfingers 7.125019999999976
lthumb 23.52683412805291 50.51459301983807
rfemur 59.06139857759426 -82.07820672692483 -56.262954249573156
rtibia 40.213732561336634
rfoot -18.436107836706014 -17.993006794295752
rtoes 21.65415854285691
lfemur -44.82683991113028 8.253341301064117 -27.136966488370792
ltibia 44.07635752911668
lfoot -22.805513350466473 14.952808042017601
ltoes 10.918653910638557
91
root 0 0 0 45.0186281973446 -47.12987634662046 -18.510266730540344
lowerback -6.5049564920129015 3.6030970688652184 -0.4819815155558401
upperback -13.443171112713529 4.3110984932734855 -0.07840913560451845
thorax -11.036223039791283 2.1119897337122695 0.6816045028964297
lowerneck -11.434339876509515 6.757661198716664 4.436117008779577
upperneck 18.191669905129608 7.226411758484513 7.278614126766422
head 7.640589193618281 4.22450680386921 2.160908190505972
rclavicle 9.12180771853697E-16 -1.8276789657829097E-15
rhumerus 7.967560109375693 -22.477824531836816 -48.47250103105236
rradius 27.912980994560176
rwrist 21.308655509366634
rhand 0.8564641547558178 7.346522911436736
rfingers 7.125020000000029
rthumb 26.474145106703247 -19.702533235721237
lclavicle 1.4254943650980728E-15 -9.292029110986342E-16
lhumerus -10.495464163472677 3.9332330860590288 51.25810482353502
lradius 35.59148208224756
lwrist -7.868907033401538
lhand -1.7552259816979774 23.338198851221172
lfingers 7.125019999999976
lthumb 23.524108426859684 50.51181810094687
rfemur 59.00419580835894 -82.00919864770047 -56.194818970365134
rtibia 40.21334630773913
rfoot -18.428807016776148 -17.98432996125711
rtoes 21.64195145739728
lfemur -44.80112862082884 8.24347624290866 -27.134117032253364
ltibia 44.06928504657127
lfoot -22.792432765373576 14.93876483776899
ltoes 10.904422066430872
